<?xml version="1.0" encoding="iso-8859-1"?>
<!DOCTYPE svg PUBLIC "-//W3C//DTD SVG 1.1//EN" "http://www.w3.org/Graphics/SVG/1.1/DTD/svg11.dtd">
<svg version="1.1" id="Capa_1" xmlns="http://www.w3.org/2000/svg" xmlns:xlink="http://www.w3.org/1999/xlink" 
	 width="288px" height="288px" viewBox="0 0 288.259 288.259"
	 xml:space="preserve">
<g>
	<g>
		<path fill="#f4efd2" stroke="#343434" stroke-width="10" d="M6.839,137.02l46.417,47.774l-8.028,68.045l-0.045,0.619c-0.33,8.836,2.138,16.25,7.129,21.429
			c7.104,7.374,18.707,8.866,30.214,3.677l61.621-33.545l61.099,33.281l0.518,0.264c4.637,2.087,9.201,3.148,13.579,3.148
			c6.484,0,12.39-2.428,16.63-6.825c4.991-5.179,7.46-12.593,7.13-21.429l-8.079-68.664l45.793-47.05l0.624-0.724
			c6.398-8.417,8.415-18.073,5.535-26.482c-2.884-8.409-10.395-14.8-20.611-17.524l-68.781-11.09l-29.99-60.339l-0.452-0.792
			c-5.916-9.052-14.594-14.247-23.811-14.247c-8.861,0-17.113,4.634-23.247,13.035l-35.47,62.327L22.495,92.344l-0.853,0.193
			c-10.141,2.895-17.575,9.422-20.398,17.912C-1.58,118.935,0.456,128.624,6.839,137.02z"/>
	</g>
</g>
</svg>